<?xml version="1.0" encoding="UTF-8" standalone="no" ?>
<!DOCTYPE svg PUBLIC "-//W3C//DTD SVG 1.1//EN" "http://www.w3.org/Graphics/SVG/1.1/DTD/svg11.dtd">
<svg xmlns="http://www.w3.org/2000/svg" xmlns:xlink="http://www.w3.org/1999/xlink" version="1.1" width="640"
	 height="640" viewBox="0 0 640 640" xml:space="preserve">
<desc>Created with Fabric.js 5.3.0</desc>
	<defs>
</defs>
	<g transform="matrix(1 0 0 1 316.6373505615 311.7131394712)" id="m8NlAbdwr5-tzS9ci7tDB">
<path id="border"
	  style="stroke: rgb(255,255,255); stroke-width: 0; stroke-dasharray: none; stroke-linecap: butt; stroke-dashoffset: 0; stroke-linejoin: miter; stroke-miterlimit: 4; fill: rgb(32,66,120); fill-opacity: 0; fill-rule: nonzero; opacity: 1;"
	  transform=" translate(-214.9529476377, -261.8032380399)"
	  d="M 425.77733 252.98103 C 428.33964000000003 254.53361 429.90506 257.31163 429.90589 260.30761 C 429.90672 263.30359 428.34283 266.08248000000003 425.78138 267.63648 L 4.590239999999994 523.16799 C 3.356689999999994 523.91637 1.7661899999999942 523.68853 0.7923399999999945 522.6239400000001 C -0.18150000000000555 521.5593500000001 -0.2671100000000055 519.9548900000001 0.5879199999999944 518.79272 L 189.79667 261.61802000000006 L 266.0219 156.60721000000007 L 266.12731 156.24415000000008 z M 266.0219 156.60632 L 189.79667 261.61713000000003 L 4.248570000000001 6.180650000000043 C 3.159160000000001 4.6809100000000425 3.278390000000001 2.6210100000000427 4.5335600000000005 1.2569700000000426 C 5.78873 -0.10706999999995737 7.8316300000000005 -0.3968299999999574 9.4166 0.5643700000000426 L 266.1273 156.24415000000005 z"
	  stroke-linecap="round"/>
</g>
	<g transform="matrix(1 0 0 1 316.6373500571 311.7131425002)" id="94mOyeCghzfEWbdE2u6FW">
<g style="">
		<g transform="matrix(0.9009009009 0 0 0.9009009009 0 78.1220725164)" id="nb2cs4QhnKs2Y3e7gjmgq">
<path style="stroke: none; stroke-width: 1; stroke-dasharray: none; stroke-linecap: butt; stroke-dashoffset: 0; stroke-linejoin: miter; stroke-miterlimit: 4; fill: rgb(32,66,120); fill-rule: nonzero; opacity: 1;"
	  transform=" translate(-0.0000045364, 0.0000023054)"
	  d="M 234.01507 -96.50815 C 236.85923 -94.78479 238.59685000000002 -91.70119 238.59777 -88.37564 C 238.59869 -85.0501 236.86278 -81.96554 234.01957 -80.2406 L -233.50260000000003 203.39937 L -233.50260000000003 203.39937 C -234.87184000000002 204.23007 -236.63730000000004 203.97717 -237.71826000000004 202.79548 C -238.79922000000005 201.61379 -238.89425000000006 199.83284 -237.94516000000004 198.54283 L -27.92345000000003 -86.92108999999996 L 56.68654999999997 -203.48308999999995 L 56.803549999999966 -203.88608999999994 z"
	  stroke-linecap="round"/>
</g>
	<g transform="matrix(0.9009009009 0 0 0.9009009009 -80.1366278313 -130.994674476)" id="eRq8LP-Q3T8RG7loQE3j8">
<path style="stroke: none; stroke-width: 1; stroke-dasharray: none; stroke-linecap: butt; stroke-dashoffset: 0; stroke-linejoin: miter; stroke-miterlimit: 4; fill: rgb(79,209,255); fill-rule: nonzero; opacity: 1;"
	  transform=" translate(-0.0000022277, 2.29e-7)"
	  d="M 145.6382 28.6355 L 61.02820000000001 145.1975 L -144.93018999999998 -138.33699000000001 L -144.93018999999998 -138.33699000000001 C -146.13942999999998 -140.00171 -146.00708999999998 -142.28819000000001 -144.61384999999999 -143.80227000000002 C -143.22061 -145.31635000000003 -140.95299999999997 -145.63798000000003 -139.19367 -144.57106000000002 L 145.7552 28.233499999999992 z"
	  stroke-linecap="round"/>
</g>
</g>
</g>
</svg>