<?xml version="1.0" encoding="UTF-8" standalone="no" ?>
<!DOCTYPE svg PUBLIC "-//W3C//DTD SVG 1.1//EN" "http://www.w3.org/Graphics/SVG/1.1/DTD/svg11.dtd">
<svg xmlns="http://www.w3.org/2000/svg" xmlns:xlink="http://www.w3.org/1999/xlink" version="1.1" width="640" height="640" viewBox="0 0 640 640" xml:space="preserve">
<desc>Created with Fabric.js 5.3.0</desc>
<defs>
</defs>
<g transform="matrix(1.0038915466 0 0 1.0038915466 477.2435154884 97.053444688)" id="P35uSogArrajpPRIsisgi"  >
<path style="stroke: none; stroke-width: 1; stroke-dasharray: none; stroke-linecap: butt; stroke-dashoffset: 0; stroke-linejoin: miter; stroke-miterlimit: 4; fill: rgb(49,71,247); fill-rule: nonzero; opacity: 1;"  transform=" translate(-456.6335, -76.254)" d="M 464.424 99.312 C 473.029 90.707 486.981 90.707 495.58599999999996 99.312 L 495.58599999999996 99.312 C 504.191 107.917 504.191 121.869 495.58599999999996 130.474 L 480.00499999999994 146.05499999999998 C 471.3999999999999 154.65999999999997 457.4479999999999 154.65999999999997 448.84299999999996 146.05499999999998 L 448.84299999999996 146.05499999999998 C 440.23799999999994 137.45 440.23799999999994 123.49799999999998 448.84299999999996 114.89299999999997 L 464.424 99.312 z M 448.843 52.569 L 463.797 37.615 C 472.40200000000004 29.01 472.40200000000004 15.058000000000003 463.797 6.453000000000003 L 463.797 6.453000000000003 C 455.192 -2.1519999999999975 441.24 -2.1519999999999975 432.63500000000005 6.453000000000003 L 417.68100000000004 21.407000000000004 C 409.076 30.012000000000004 409.076 43.964 417.68100000000004 52.569 C 426.286 61.174 440.238 61.174 448.843 52.569 z" stroke-linecap="round" />
</g>
<g transform="matrix(1.0038915466 0 0 1.0038915466 320 352.6375886252)" id="XQwomaYcyQM5BSn6IUxCI"  >
<path style="stroke: none; stroke-width: 1; stroke-dasharray: none; stroke-linecap: butt; stroke-dashoffset: 0; stroke-linejoin: miter; stroke-miterlimit: 4; fill: rgb(49,71,247); fill-rule: nonzero; opacity: 1;"  transform=" translate(-299.9995328937, -330.8473819274)" d="M 536.432 307.759 L 536.432 307.759 C 527.827 299.154 513.875 299.154 505.27000000000004 307.759 L 487.58900000000006 325.44 C 478.98400000000004 334.045 465.03200000000004 334.045 456.4270000000001 325.44 C 447.82200000000006 316.835 447.82200000000006 302.883 456.4270000000001 294.278 L 472.87000000000006 277.83500000000004 L 534.537 216.16800000000003 C 543.144 207.56100000000004 543.144 193.60600000000002 534.537 185.01100000000002 C 530.24 180.70100000000002 524.599 178.55300000000003 518.9590000000001 178.55300000000003 C 513.3180000000001 178.55300000000003 507.67800000000005 180.70200000000003 503.38000000000005 185.01100000000002 L 464.422 223.95700000000002 C 455.81500000000005 232.56400000000002 441.872 232.56400000000002 433.26500000000004 223.95700000000002 C 428.95500000000004 219.64700000000002 426.80600000000004 214.00700000000003 426.80600000000004 208.37900000000002 C 426.80600000000004 202.73800000000003 428.95500000000004 197.098 433.26500000000004 192.80100000000002 C 441.87200000000007 184.19400000000002 441.87200000000007 170.239 433.26500000000004 161.632 C 428.95500000000004 157.334 423.31500000000005 155.174 417.67400000000004 155.174 C 412.03400000000005 155.174 406.39300000000003 157.335 402.09600000000006 161.632 L 340.55100000000004 223.176 C 360.98900000000003 231.40499999999997 380.14400000000006 243.809 396.71200000000005 260.376 C 462.61500000000007 326.279 462.61500000000007 433.131 396.71200000000005 499.034 C 330.809 564.937 223.97000000000006 564.937 158.06600000000006 499.034 C 152.80500000000006 493.77299999999997 147.96700000000007 488.248 143.54600000000005 482.505 L 143.45000000000005 482.479 C 133.96800000000005 470.168 126.41200000000005 456.851 120.79100000000005 442.93399999999997 C 114.23000000000005 426.68999999999994 110.30200000000005 409.631 109.00200000000005 392.41099999999994 L 109.12000000000005 392.29299999999995 C 105.59200000000004 345.0079999999999 121.91500000000005 296.52699999999993 158.06500000000005 260.37699999999995 C 194.21500000000006 224.22699999999995 242.68400000000005 207.90399999999994 289.96900000000005 211.43199999999996 L 402.095 99.307 C 410.702 90.712 410.702 76.757 402.095 68.15 C 393.5 59.543000000000006 379.545 59.543000000000006 370.93800000000005 68.15 L 279.64000000000004 159.46 C 222.51500000000004 158.886 165.21900000000005 180.37400000000002 121.64600000000004 223.959 C 71.61500000000004 273.99 50.676000000000045 342.079 58.82600000000004 407.23400000000004 L 58.517000000000046 407.326 C 62.50900000000004 439.047 73.39000000000004 470.067 91.16000000000005 497.96400000000006 C 99.65700000000005 511.30400000000003 109.72900000000006 523.9290000000001 121.37600000000006 535.576 L 121.50700000000006 535.445 C 121.55000000000007 535.488 121.59100000000007 535.533 121.63400000000006 535.576 C 207.90100000000007 621.844 348.43700000000007 621.416 434.20400000000006 534.636 C 477.15900000000005 491.17099999999994 498.3470000000001 434.284 497.78100000000006 377.57099999999997 L 536.431 338.921 C 545.037 330.316 545.037 316.364 536.432 307.759 z" stroke-linecap="round" />
</g>
</svg>